<?xml version="1.0" encoding="UTF-8"?>
<svg data-bbox="0.501 0.819 14.98 14.375" viewBox="0 0 16 16" xmlns="http://www.w3.org/2000/svg" data-type="color">
    <g>
        <path d="M9.14 1.04c0-.07-.1-.17-.18-.19-.38-.1-.72.06-1.04.25-.13.08-.26.15-.39.21-.09.04-.16.11-.25.15-.26.11-.56.12-.83.17-.43.08-.81.26-1.18.48-.33.2-.64.43-.91.7-.75.73-1.24 1.69-1.56 2.68-.14.44-.19.91-.08 1.37.1.41.26.79.64 1.03.42.26.88.43 1.38.43.55 0 1.08-.09 1.43-.56.03-.04.31-.47.24-.51a.819.819 0 0 0-.28-.14c-.17-.04-.24.12-.33.24-.18.24-.51.45-.81.48-.07 0-.15 0-.2-.06-.1-.11 0-.21.05-.31.09-.15.16-.32.24-.47.16-.32.33-.63.49-.95.43-.84.81-1.7 1.27-2.52.23-.41.48-.82.77-1.2.06-.08.11-.18.2-.19.07 0 .2.1.26.14.14.1.25.23.33.38.09.16.14.34.16.53.12.75-.12 1.4-.53 2-.12.17-.31.32-.49.42-.4.22-.87.32-1.24.58-.04.03-.07.05-.1.09s-.04.08-.02.12c.02.07.1.1.17.12.29.08.59.06.85.23.43.29.37.8.16 1.21s-.6.74-1.02.94c-.47.23-.96.41-1.46.54-.25.07-.5.12-.75.16-.23.04-.44.05-.67.05.06-.13.14-.26.21-.38.11-.19.24-.37.34-.56.06-.12.04-.26-.09-.31-.1-.04-.25-.04-.33.01-.13.1-.23.25-.33.39-.36.5-.72.98-1.27 1.29-.1.06-.2.15-.26.25-.05.09-.09.25-.05.33.04.08.2.14.3.14.12 0 .22-.06.32-.12.11-.07.23-.12.35-.18.24-.11.49-.21.75-.3 1.22-.41 2.55-.4 3.7-1.02.06-.03.11-.06.17-.1.54-.33.86-.77.97-1.38.07-.38 0-.72-.29-1-.15-.15-.29-.31-.43-.47.47-.3.93-.62 1.32-1.02.19-.2.36-.43.5-.68.12-.23.14-.49.14-.75-.01-.91-.66-1.59-1.33-2.12.23-.31.54-.37.85-.43.07-.01.17-.13.16-.19ZM6.01 3.92c-.28.59-.62 1.15-.94 1.73-.33.59-.65 1.18-1.01 1.83-.42-.25-.53-.56-.58-.9-.06-.49-.03-.97.11-1.45.43-1.47 1.31-2.53 2.8-3.02.11-.04.23-.04.43-.08-.25.69-.54 1.29-.82 1.88Z" fill="#9ed7cf" data-color="1"/>
        <path d="M11.87 3.98c.19-.07.75-.04.62-.41-.04-.11-.19-.12-.29-.12-.4.02-.78.12-1.08.38-.27.23-.57.31-.91.38s-.67.12-1 .19c-.11.03-.19.09-.3.14-.15.07-.29.15-.43.24-.11.07-.07.19.02.24-.14.12-.27.26-.38.42-.11.16.13.35.25.18.39-.55 1.14-.98 1.84-.87 0 .07-.06.18-.09.25-.04.09-.08.17-.12.26-.08.17-.15.35-.23.52-.15.33-.3.66-.46.99-.55 1.06-1.15 2.08-1.73 3.11-.03.06-.07.12-.12.16-.18.15-.35-.15-.42-.3-.09-.21-.07-.51.01-.72.07-.19-.22-.3-.29-.11-.04.11-.07.22-.09.34-.09.02-.17.06-.23.09-.03.01-.07.02-.1.04v-.02c0-.2-.3-.23-.31-.03v.14c0 .06.01.11.03.17.01.04.04.09.04.13 0 .03.02.05.03.07.09.19.22.4.38.52h.02c.05.07.12.11.23.19.63.4 1.32.48 2.04.34.37-.07.67-.3.86-.63.05-.08.08-.19.07-.27 0-.08-.11-.22-.19-.23-.1-.01-.21.14-.28.2-.16.15-.32.3-.52.4-.13.07-.42.18-.56.1-.12-.07.04-.33.09-.42.73-1.49 1.46-2.97 2.19-4.46.16-.32.32-.64.62-.87.61.24.83.71.89 1.27.09.85-.3 1.79-1 2.28-.12.08-.26.17-.39.21-.19.06-.4.09-.6.15-.11.04-.21.08-.29.16-.05.06-.16.23-.08.31.05.05.28.06.36.07.12.02.24.03.36.06.42.13.64.46.57.89-.04.21-.11.43-.22.61-.32.55-.81.9-1.42 1.06-.37.1-.74.18-1.11.26l-.79.15c-.13.03-.26.05-.39.08-.04 0-.12.05-.14 0-.01-.03.03-.1.05-.12.09-.17.22-.32.34-.48.03-.04.3-.49.24-.51-.46-.15-.51-.16-.67.08-.44.65-.95 1.23-1.62 1.66-.04.03-.08.07-.09.11-.02.09-.05.2 0 .27.04.07.15.14.23.14.14 0 .29-.05.41-.12.72-.44 1.52-.63 2.34-.79a22.2 22.2 0 0 0 1.92-.45c.52-.15.98-.43 1.32-.87.54-.69.5-1.41-.1-2.03-.06-.06-.26-.2-.19-.3.03-.05.14-.08.19-.11.06-.04.12-.07.17-.11.23-.15.44-.33.63-.53.4-.41.78-.87.87-1.46s-.13-1.13-.5-1.57c-.17-.2-.38-.37-.57-.56-.24-.23-.2-.43.11-.54Z" fill="#9ed7cf" data-color="1"/>
        <path d="M4.97 1.6c-.43-.09-.88-.13-1.32-.11-.46 0-.93.08-1.38.24-.44.18-.87.45-1.18.84-.33.38-.5.87-.57 1.35-.05.48 0 .95.11 1.39.01.11.04.22.07.33.03.11.05.22.08.33l.2.63.26.61c.09.2.19.4.29.59.09.2.21.39.31.58.1.19.22.38.33.57l.14.23c.17-.13.33-.28.45-.45-.1-.15-.19-.3-.28-.45l-.31-.55c-.09-.19-.18-.38-.26-.58-.09-.19-.16-.39-.24-.59-.09-.19-.15-.39-.23-.59-.04-.1-.08-.2-.11-.3l-.09-.3c-.09-.45-.14-.91-.07-1.34.04-.41.16-.8.42-1.11.25-.28.58-.49.95-.61.37-.14.77-.21 1.17-.22.3 0 .61.02.9.08.21-.19.44-.35.69-.49-.11-.03-.22-.07-.33-.09Z" fill="#9ed7cf" data-color="1"/>
        <path d="M15.47 3.64c-.01-.11-.05-.23-.07-.34-.04-.11-.07-.23-.13-.34-.1-.22-.26-.41-.44-.58-.18-.17-.38-.29-.59-.39-.41-.21-.86-.31-1.31-.35-1.05-.09-2.15.26-3.02.82-.13.09-.26.19-.38.29.04.05.07.11.1.17.06.13.09.28.11.43.14-.12.28-.24.44-.34.35-.24.68-.44 1.09-.57s.86-.21 1.3-.21c.44 0 .89.06 1.27.21s.71.4.87.76c.18.31.23.71.22 1.11-.02.4-.09.81-.21 1.21-.07.2-.14.39-.22.59-.09.19-.16.39-.25.58-.08.19-.16.39-.24.58-.09.19-.17.38-.27.58-.11.18-.21.37-.32.55l-.34.54-.34.54-.35.53-.38.51-.4.5c-.26.34-.53.67-.81 1-.28.33-.56.65-.84.97l-.83.98-.34.39-.17.19-.05.05s-.02.01-.03.02h-.06c-.03-.02-.14-.1-.22-.16l-.25-.19c-.17-.13-.33-.26-.5-.4-.23-.17-.45-.35-.67-.53-.23.08-.46.17-.68.27.1.08.19.16.29.24.34.27.7.52 1.06.77l.46.32c.08.05.14.1.26.17.14.08.31.11.47.06.1-.03.19-.1.27-.18l.87-.97.77-.84c.25-.29.5-.57.75-.87.28-.33.55-.67.82-1.01.25-.35.5-.71.73-1.08.25-.36.48-.72.71-1.1.11-.19.22-.37.33-.57.1-.19.21-.38.31-.58.09-.19.19-.38.28-.57l.26-.58.24-.59c.07-.2.15-.4.2-.61.12-.41.21-.85.23-1.29.02-.22.01-.45-.02-.68Z" fill="#9ed7cf" data-color="1"/>
        <path d="M5.07 12.57c.08 0 .22-.13.28-.18l.18-.15c.08-.08 0-.11-.07-.17-.14-.12-.27-.24-.41-.37-.26-.27-.52-.54-.76-.83-.1-.11-.19-.23-.28-.34-.22.04-.44.08-.66.15l.32.41.43.5.45.48c.09.09.17.18.26.27.05.05.18.23.25.23Z" fill="#9ed7cf" data-color="1"/>
    </g>
</svg>
